<svg xmlns="http://www.w3.org/2000/svg" xml:space="preserve" width="252.9" height="252.9"><g style="opacity:1;fill:none;fill-rule:nonzero;stroke:none;stroke-width:0;stroke-linecap:butt;stroke-linejoin:miter;stroke-miterlimit:10;stroke-dasharray:none"><path d="M68.88 6.865v76.27C81.563 75.176 90 61.077 90 45c0-16.077-8.437-30.176-21.12-38.135Zm-47.76 0C8.438 14.824 0 28.923 0 45c0 16.077 8.438 30.176 21.12 38.135Z" style="opacity:1;fill:#bf0a30;fill-rule:nonzero;stroke:none;stroke-width:1;stroke-linecap:butt;stroke-linejoin:miter;stroke-miterlimit:10;stroke-dasharray:none" transform="scale(2.81)"/><path d="M68.881 6.865A44.778 44.778 0 0 0 45 0a44.772 44.772 0 0 0-23.88 6.865v76.27A44.772 44.772 0 0 0 45 90a44.778 44.778 0 0 0 23.881-6.865z" style="opacity:1;fill:#f3f4f5;fill-rule:nonzero;stroke:none;stroke-width:1;stroke-linecap:butt;stroke-linejoin:miter;stroke-miterlimit:10;stroke-dasharray:none" transform="scale(2.81)"/><path d="m45.314 67.549-.423-9.35 9.377 1.112c-.58-1.226-1.097-1.876-.56-3.836l8.624-7.175-1.509-.546c-1.234-.952.533-4.586.8-6.879 0 0-5.035 1.732-5.365.826l-1.282-2.463-4.581 5.032c-.5.12-.714-.079-.831-.502l2.116-10.516-3.351 1.885c-.281.12-.561.016-.746-.31l-3.223-6.468-3.324 6.717c-.25.241-.501.269-.71.105l-3.191-1.79 1.916 10.434c-.152.414-.517.531-.947.306l-4.379-4.975c-.573.918-.961 2.417-1.718 2.753-.757.315-3.293-.636-4.993-1.007.581 2.096 2.396 5.577 1.247 6.718l.001-.001-1.855.634 8.629 7.573c.653 1.946-.227 2.52-.787 3.541l9.368-1.189-.244 9.428z" style="opacity:1;fill:#bf0a30;fill-rule:nonzero;stroke:none;stroke-width:1;stroke-linecap:butt;stroke-linejoin:miter;stroke-miterlimit:10;stroke-dasharray:none" transform="scale(2.81)"/></g></svg>