<svg xmlns="http://www.w3.org/2000/svg" width="81" height="80" fill="none"><circle cx="40.481" cy="40" r="40" fill="#792A42"/><path fill="#fff" fill-rule="evenodd" d="M10.104 41.959V61.03a2.22 2.22 0 0 0 2.218 2.219h4.775a2.22 2.22 0 0 0 2.19-1.855l1.17-7.02h38.459l1.169 7.02a2.219 2.219 0 0 0 2.189 1.855h4.777a2.219 2.219 0 0 0 2.22-2.219V41.96c0-3.478-1.03-6.878-2.96-9.772l-2.307-3.46a5.9 5.9 0 0 1-.526-.977h2.94a2.219 2.219 0 0 0 1.985-1.228l.74-1.479a2.219 2.219 0 0 0-1.982-3.21h-4.99l-.918-4.573a7.395 7.395 0 0 0-5.576-5.751C51.352 10.503 46.02 10 39.687 10c-6.337 0-11.665.503-15.99 1.509a7.395 7.395 0 0 0-5.58 5.75l-.916 4.574h-4.985a2.219 2.219 0 0 0-1.982 3.21l.74 1.48a2.218 2.218 0 0 0 1.981 1.227H15.9a5.91 5.91 0 0 1-.527.976l-2.31 3.462a17.614 17.614 0 0 0-2.958 9.77ZM57.32 27.762a11.831 11.831 0 0 0 1.006 2.95h-37.28c.464-.933.801-1.924 1.005-2.95l1.87-9.34a1.48 1.48 0 0 1 1.115-1.153c3.84-.888 8.733-1.352 14.65-1.352 5.916 0 10.81.461 14.65 1.355a1.479 1.479 0 0 1 1.118 1.15l1.866 9.34ZM20.458 45.5a4.437 4.437 0 1 0 0-8.875 4.437 4.437 0 0 0 0 8.875Zm42.895-4.438a4.438 4.438 0 1 1-8.875 0 4.438 4.438 0 0 1 8.875 0Z" clip-rule="evenodd"/></svg>