<svg xmlns="http://www.w3.org/2000/svg" width="80" height="80" fill="none"><circle cx="40" cy="40" r="40" fill="#25283D"/><path fill="#fff" d="M61.37 22.153c-3.099-1.21-4.776.473-5.445 1.339-.7.91-.396 2.466-.098 1.804.44-1.392 2.73-1.392 3.468 0 .74 1.395-.456 2.932-2.142 3.156-2.213.293-3.132-1.512-4.461-2.979-1.33-1.466-3.34-3.09-6.255-3.917-1.892-.538-4.44-.107-6.073 1.385-1.63-1.492-4.182-1.923-6.074-1.385-2.914.828-4.922 2.451-6.254 3.917-1.327 1.467-2.246 3.272-4.462 2.979-1.683-.224-2.882-1.761-2.141-3.156.738-1.392 3.028-1.392 3.47 0 .295.662.599-.893-.1-1.804-.666-.866-2.347-2.55-5.446-1.34-3.019 1.18-4.179 5.536-2.748 8.57 1.993 4.231 7.652 6.375 13.583 5.839 4.203-.38 7.504-2.805 10.172-6.775 2.668 3.97 5.969 6.395 10.172 6.775 5.93.535 11.59-1.608 13.583-5.839 1.43-3.034.27-7.39-2.748-8.57ZM19.214 58.084C17.112 55.802 16 52.44 16 49.041c0-3.398 1.112-6.76 3.214-9.041 1.633.052 4.669.442 7.704 1.2 2.268.568 4.515 1.369 6.143 2.271-.579.628-.88 1.456-1.099 2.387-.053.228-.099.457-.137.688l-6.088-1.74-.515 1.803 6.415 1.833c-.007.2-.012.4-.012.6 0 .2.005.399.012.598l-6.415 1.833.515 1.803 6.088-1.74c.038.231.084.46.137.689.22.93.52 1.758 1.1 2.386-1.629.903-3.876 1.704-6.144 2.27-3.035.76-6.071 1.149-7.704 1.202Zm42.53 0c-1.632-.053-4.669-.443-7.704-1.201-2.268-.567-4.515-1.368-6.143-2.271.579-.628.88-1.456 1.099-2.387.052-.222.098-.453.138-.687l6.088 1.739.515-1.803-6.416-1.833c.007-.2.012-.399.012-.599 0-.2-.005-.4-.012-.599l6.416-1.833-.515-1.803-6.088 1.74c-.039-.231-.085-.46-.138-.688-.219-.93-.52-1.759-1.099-2.387 1.628-.902 3.875-1.703 6.143-2.27 3.035-.76 6.072-1.149 7.704-1.201 2.102 2.28 3.214 5.643 3.214 9.041 0 3.398-1.112 6.76-3.214 9.041Zm-21.265-3.73c-1.413 0-2.83-.103-3.954-.298-1.123-.195-1.965-.591-2.05-.677-.195-.195-.5-.789-.687-1.583-.187-.793-.288-1.775-.288-2.754 0-.979.1-1.96.288-2.754.186-.794.492-1.387.687-1.583.085-.085.927-.481 2.05-.677 1.124-.195 2.54-.298 3.954-.298 1.414 0 2.83.103 3.954.298 1.123.196 1.965.592 2.05.677.196.196.501.79.688 1.583.186.794.287 1.775.287 2.754 0 .98-.1 1.96-.287 2.754-.187.794-.492 1.388-.688 1.583-.085.086-.927.482-2.05.677-1.123.195-2.54.299-3.954.299Z"/></svg>