<svg xmlns="http://www.w3.org/2000/svg" width="81" height="80" fill="none"><circle cx="40.481" cy="40" r="40" fill="#404E2D"/><path stroke="#fff" stroke-width="5" d="M47.31 61.82H19.49A2.5 2.5 0 0 1 17 59.37V19.49A2.49 2.49 0 0 1 19.49 17h39.84a2.49 2.49 0 0 1 2.49 2.49v22.4M17 28h44.82M27.11 17v-5m23.96 5v-5"/><path stroke="#fff" stroke-width="5" d="M55.87 65.24c6.865 0 12.43-5.565 12.43-12.43 0-6.865-5.565-12.43-12.43-12.43-6.865 0-12.43 5.565-12.43 12.43 0 6.865 5.565 12.43 12.43 12.43Z"/><path stroke="#fff" stroke-width="5" d="M55.87 44.07v9.12l4.35 3.34"/></svg>