<svg xmlns="http://www.w3.org/2000/svg" width="80" height="80" fill="none"><circle cx="40" cy="40" r="40" fill="#E03D15"/><path fill="#fff" d="M36.298 39.87V25.54H32.27c-4.462 0-6.814-2.893-6.814-5.706 0-2.92 2.163-4.65 5.056-4.65 3.326 0 5.922 2.568 5.922 6.868v3.488h4.516v-3.488c0-4.3 2.596-6.869 5.922-6.869 2.894 0 5.084 1.73 5.084 4.651 0 2.813-2.434 5.706-6.841 5.706h-4.03v14.332h19.064c2.948 0 4.543-1.136 4.543-4.03v-6.273c0-2.866-1.595-4.029-4.543-4.029h-6.3c1.676-1.514 2.677-3.57 2.677-5.895 0-5.219-4.137-8.977-9.383-8.977-3.894 0-7.058 2.163-8.437 6.003-1.38-3.84-4.57-6.004-8.464-6.004-5.219 0-9.383 3.76-9.383 8.978 0 2.326.973 4.38 2.677 5.895h-6.3c-2.786 0-4.544 1.163-4.544 4.03v6.273c0 2.893 1.623 4.029 4.543 4.029h19.064Zm0 27.961V42.764h-19.74v18.199c0 4.516 2.65 6.868 7.166 6.868h12.574Zm4.786-25.067v25.067H53.66c4.515 0 7.165-2.352 7.165-6.868V42.764h-19.74Z"/></svg>