<svg xmlns="http://www.w3.org/2000/svg" width="80" height="80" fill="none"><circle cx="40" cy="40" r="40" fill="#404E2D"/><path fill="#fff" d="M39.586 8C26.468 8 15.358 19.174 15.358 32.409c0 13.86 12.878 28.035 21.54 37.997.034.04 1.434 1.594 3.158 1.594h.152c1.726 0 3.116-1.554 3.15-1.594 8.128-9.344 20-24.755 20-37.997C63.358 19.172 54.692 8 39.586 8Zm.802 59.722c-.07.07-.172.148-.262.214a2.436 2.436 0 0 1-.266-.214l-1.046-1.204c-8.212-9.42-19.458-22.323-19.458-34.111 0-11.065 9.264-20.41 20.228-20.41 13.658 0 19.772 10.25 19.772 20.41 0 8.948-6.382 20.832-18.968 35.315Zm-.96-47.612c-6.626 0-12 5.373-12 12 0 6.629 5.374 12.001 12 12.001s12-5.374 12-12-5.372-12-12-12Zm0 20.001c-4.412 0-8.092-3.676-8.092-8.088 0-4.412 3.588-8 8-8 4.414 0 8 3.588 8 8 .002 4.412-3.494 8.088-7.908 8.088Z"/></svg>