<svg xmlns="http://www.w3.org/2000/svg" width="80" height="80" fill="none"><path fill="#fff" fill-rule="evenodd" d="M39.998 3.944c19.912 0 36.053 16.13 36.053 36.027 0 9.813-3.926 18.71-10.295 25.207l6.222 10.768-6.939 4.003-5.574-9.65a35.903 35.903 0 0 1-19.467 5.698 35.903 35.903 0 0 1-19.491-5.714L14.893 80l-6.938-4.003 6.263-10.842C7.863 58.66 3.946 49.772 3.946 39.971c0-19.897 16.141-36.027 36.052-36.027Zm0 8.006c-15.486 0-28.04 12.545-28.04 28.02 0 15.476 12.554 28.021 28.04 28.021 15.487 0 28.041-12.545 28.041-28.02 0-15.476-12.554-28.02-28.04-28.02Zm4.006 8.006v22.357l10.845 10.84-5.666 5.66-13.19-13.181V19.956h8.011ZM66.666 0A48.316 48.316 0 0 1 80 13.324l-6.667 4.44a40.263 40.263 0 0 0-11.109-11.1L66.666 0ZM13.329.002l4.445 6.662a40.264 40.264 0 0 0-11.107 11.1L0 13.322A48.316 48.316 0 0 1 13.33.002Z" clip-rule="evenodd"/></svg>