<svg xmlns="http://www.w3.org/2000/svg" width="80" height="80" fill="none"><circle cx="40" cy="40" r="40" fill="#792A42"/><path fill="#fff" d="M49.104 29.842H25.4a1.693 1.693 0 0 1-1.693-1.693v-6.772a1.693 1.693 0 0 1 1.693-1.693h23.703a1.693 1.693 0 0 1 1.693 1.693v6.772a1.693 1.693 0 0 1-1.693 1.693Zm-22.01-3.386h20.317v-3.488H27.094v3.488Zm22.01 6.907H25.4a1.693 1.693 0 0 0-1.693 1.693v6.637a1.693 1.693 0 0 0 1.693 1.693h19.233l6.163-6.264v-2.066a1.693 1.693 0 0 0-1.693-1.693ZM47.41 40H27.094v-3.386h20.317V40Z"/><path fill="#fff" d="M32.275 62.874v-.102l.542-2.353H20.322V16.297h33.861v17.354l3.386-3.2V14.604a1.693 1.693 0 0 0-1.693-1.693H18.63a1.693 1.693 0 0 0-1.693 1.693V62.01a1.693 1.693 0 0 0 1.693 1.693h13.544c.014-.278.048-.556.102-.83Zm18.522-20.893-1.32 1.337a1.693 1.693 0 0 0 1.32-1.337Z"/><path fill="#fff" d="M23.708 55.136A1.693 1.693 0 0 0 25.4 56.83h8.194l.508-2.2.22-.932v-.085h-7.229V50.16h10.734l3.386-3.386H25.401a1.693 1.693 0 0 0-1.693 1.692v6.671ZM70.25 37.748l-5.705-5.705a2.726 2.726 0 0 0-3.86 0L37.471 55.39l-1.913 8.144a2.726 2.726 0 0 0 2.134 3.217c.174.017.35.017.524 0 .208.033.42.033.627 0l8.211-1.812L70.25 41.693a2.71 2.71 0 0 0 0-3.843v-.102Zm-24.922 24.11-6.196 1.371 1.507-6.146 17.404-17.59 4.775 4.774-17.49 17.59Zm19.403-19.505-4.775-4.774 2.692-2.658 4.809 4.808-2.726 2.624Z"/></svg>