<svg xmlns="http://www.w3.org/2000/svg" xml:space="preserve" width="800" height="800" viewBox="0 0 512 512"><path d="M450.08 360.192c-9.237-8.683-19.84-12.907-29.163-15.211a273.718 273.718 0 0 0 4.459-23.915c2.091-14.528 1.557-29.333-1.6-44.053l-26.965-126.272c-4.608-16.299-14.315-28.437-26.432-37.675.491-.619 1.131-1.109 1.6-1.771 6.891-9.899 8.832-22.421 5.355-33.899l-8.021-48a20.422 20.422 0 0 0-1.024-3.883C362.635 10.24 347.957 0 331.744 0H180.235c-16.213 0-30.891 10.24-37.141 27.413l-12.629 47.68a39.382 39.382 0 0 0 4.587 36.181c1.152 1.643 2.581 2.987 3.947 4.395-11.051 9.173-19.883 20.949-24.235 36.437L88.117 277.013c-3.136 14.635-3.669 29.44-1.6 44.075 1.216 8.448 2.709 16.405 4.48 23.893-9.301 2.325-19.883 6.549-29.099 15.211-8.789 8.235-19.243 23.424-19.221 49.899C44.405 445.355 71.157 512 159.989 512h192c88.832 0 115.584-66.645 117.333-102.933.001-25.451-10.453-40.64-19.242-48.875zM138.656 467.285c-48.64-10.005-52.992-53.739-53.333-58.219 0-12.224 4.267-16.32 5.675-17.664 3.051-2.923 7.339-4.587 11.243-5.461 5.845 9.237 12.587 16.768 20.096 22.485.299.277.619.469.896.747 1.621 1.536 3.285 2.88 4.971 4.224a66.083 66.083 0 0 0 5.248 3.648c1.728 1.109 3.392 2.304 5.205 3.221v47.019zm192 2.048H181.323v-46.891a164.8 164.8 0 0 1 6.379-1.984c.512-.149 1.109-.32 1.643-.469 2.24-.64 4.715-1.323 7.339-1.984.96-.256 1.941-.512 2.965-.747 2.944-.725 6.08-1.429 9.408-2.112.619-.128 1.195-.277 1.835-.405a273.075 273.075 0 0 1 12.331-2.112c1.152-.171 2.325-.32 3.499-.469 3.371-.448 6.869-.832 10.411-1.152 1.387-.128 2.752-.256 4.139-.341 4.8-.341 9.685-.597 14.677-.597 4.949 0 9.813.256 14.571.597 1.408.085 2.773.213 4.16.341 3.541.32 6.997.704 10.368 1.152 1.173.149 2.368.299 3.499.469 4.288.64 8.448 1.344 12.352 2.133.597.107 1.131.235 1.707.363a265.06 265.06 0 0 1 9.536 2.133c1.024.256 2.027.512 3.029.768 2.56.64 4.971 1.301 7.168 1.92.597.192 1.301.363 1.877.533 2.453.725 4.587 1.408 6.443 2.005v46.849zm-60.544-384a205.938 205.938 0 0 0-8.171 0H250.25a154.436 154.436 0 0 0-4.416 0h-74.027l11.285-42.667h145.195l7.125 42.667h-65.3zm103.211 381.952v-47.04c1.813-.917 3.499-2.155 5.227-3.243a76.51 76.51 0 0 0 4.949-3.456c1.728-1.365 3.456-2.709 5.099-4.288.171-.149.363-.277.533-.427 7.744-5.76 14.635-13.419 20.608-22.891 3.755.853 8 2.411 11.136 5.355 1.429 1.344 5.781 5.44 5.824 16.555-.384 5.569-4.736 49.409-53.376 59.435z"/></svg>