<svg xmlns="http://www.w3.org/2000/svg" width="25" height="25" fill="none"><g clip-path="url(#a)"><path fill="#F0F0F0" d="M12.5 25C19.404 25 25 19.404 25 12.5S19.404 0 12.5 0 0 5.596 0 12.5 5.596 25 12.5 25Z"/><path fill="#D80027" d="M11.957 12.5H25c0-1.128-.15-2.221-.43-3.26H11.955v3.26Zm0-6.522h11.208a12.566 12.566 0 0 0-2.884-3.26h-8.324v3.26ZM12.5 25c2.942 0 5.646-1.017 7.781-2.717H4.719A12.446 12.446 0 0 0 12.5 25ZM1.835 19.022h21.33a12.428 12.428 0 0 0 1.404-3.261H.431a12.41 12.41 0 0 0 1.404 3.26Z"/><path fill="#0052B4" d="M5.79 1.952h1.14l-1.06.77.405 1.245-1.06-.77-1.06.77.35-1.076a12.569 12.569 0 0 0-2.424 2.702h.365l-.675.49a12.8 12.8 0 0 0-.302.534l.322.992-.601-.437c-.15.317-.286.64-.409.97l.355 1.093h1.31l-1.06.77.405 1.245-1.06-.77-.634.461A12.62 12.62 0 0 0 0 12.5h12.5V0c-2.47 0-4.771.716-6.71 1.952Zm.485 9.298-1.06-.77-1.06.77.405-1.246-1.06-.77h1.31l.405-1.245.405 1.246h1.31l-1.06.77.405 1.245ZM5.87 6.363l.405 1.246-1.06-.77-1.06.77.405-1.246-1.06-.77h1.31l.405-1.245.405 1.245h1.31l-1.06.77Zm4.888 4.887-1.06-.77-1.059.77.405-1.246-1.06-.77h1.31l.405-1.245.404 1.246h1.31l-1.06.77.405 1.245Zm-.404-4.887.404 1.246-1.06-.77-1.059.77.405-1.246-1.06-.77h1.31l.405-1.245.404 1.245h1.31l-1.06.77Zm0-3.641.404 1.245-1.06-.77-1.059.77.405-1.245-1.06-.77h1.31L9.699.706l.404 1.246h1.31l-1.06.77Z"/></g><defs><clipPath id="a"><path fill="#fff" d="M0 0h25v25H0z"/></clipPath></defs></svg>